# xmcd
#
# Track frame offsets: 
#        150
#        18681
#        38332
#        61385
#        75714
#        87414
#        105897
#        123656
#        143690
#        159466
#        174943
#        188701
#        208700
#
# Disc length: 2995 seconds
#
# Revision: 1
# Processed by: cddbd v1.5.2PL0 Copyright (c) Steve Scherf et al.
# Submitted via: ExactAudioCopy v0.99pb4
#
DISCID=a00bb10d
DTITLE=Various Artist -  Martyna Jakubowicz 30 urodziny
DYEAR=1900
DGENRE=
TTITLE0=Spiewam, lecz brak mi s這w/Martyna Jakubowicz
TTITLE1=Miecz i kij/Indios Bravos
TTITLE2=Baby w Meksyku/K. Stankiewicz
TTITLE3=Przyjdz do mnie dwa/ E. Adamiak
TTITLE4=Ardzuna i Kriszna/LIPALI
TTITLE5=Gdyby nie nasz fart  Loule el ness/SOOMOOD
TTITLE6=Zagle tuz nad ziemia/E. Bem
TTITLE7=Jesli chcesz z kogos kpic/ Bracia
TTITLE8=W domach z betonu nie ma wolnej milosci/ Goya
TTITLE9=Trzech z造ch ma造ch ch這pc闚/ POGODNO
TTITLE10=M這de Wino/ HURT
TTITLE11=Chce ci dac troche wiary w cud Kolysanka dla Misiakow/ K Kilj
TTITLE11=anski
TTITLE12=Zyczenia/ M. Jakubowicz
EXTD=
EXTT0=
EXTT1=
EXTT2=
EXTT3=
EXTT4=
EXTT5=
EXTT6=
EXTT7=
EXTT8=
EXTT9=
EXTT10=
EXTT11=
EXTT12=
PLAYORDER=
